<svg xmlns="http://www.w3.org/2000/svg" xmlns:xlink="http://www.w3.org/1999/xlink" width="425" zoomAndPan="magnify" viewBox="0 0 318.75 318.749995" height="425" preserveAspectRatio="xMidYMid meet" version="1.0"><defs><g/><clipPath id="4685fb87e0"><path d="M 88.804688 88.078125 L 208.480469 88.078125 L 208.480469 241 L 88.804688 241 Z M 88.804688 88.078125 " clip-rule="nonzero"/></clipPath><clipPath id="4bac600f02"><path d="M 116.96875 119.742188 L 217.855469 119.742188 L 217.855469 259.109375 L 116.96875 259.109375 Z M 116.96875 119.742188 " clip-rule="nonzero"/></clipPath><clipPath id="1b16f51241"><path d="M 107.664062 102.8125 L 238.6875 102.8125 L 238.6875 233.960938 L 107.664062 233.960938 Z M 107.664062 102.8125 " clip-rule="nonzero"/></clipPath><clipPath id="99dc22dfb7"><path d="M 101.042969 73.253906 L 170.941406 73.253906 L 170.941406 210.210938 L 101.042969 210.210938 Z M 101.042969 73.253906 " clip-rule="nonzero"/></clipPath><clipPath id="d3175f7c58"><path d="M 148.644531 79.625 L 205.242188 79.625 L 205.242188 123.464844 L 148.644531 123.464844 Z M 148.644531 79.625 " clip-rule="nonzero"/></clipPath><clipPath id="f60479e083"><path d="M 101.042969 201.40625 L 157.644531 201.40625 L 157.644531 245.246094 L 101.042969 245.246094 Z M 101.042969 201.40625 " clip-rule="nonzero"/></clipPath></defs><g fill="#ca2d37" fill-opacity="1"><g transform="translate(41.314372, 246.061677)"><g><path d="M 189.9375 -103.96875 C 189.9375 -80.988281 185.75 -61.800781 177.375 -46.40625 C 169 -31.007812 156.878906 -19.425781 141.015625 -11.65625 C 125.160156 -3.882812 105.925781 0 83.3125 0 L 27.90625 0 L 27.90625 -204.03125 L 89.453125 -204.03125 C 110.203125 -204.03125 128.066406 -200.238281 143.046875 -192.65625 C 158.023438 -185.070312 169.582031 -173.859375 177.71875 -159.015625 C 185.863281 -144.179688 189.9375 -125.832031 189.9375 -103.96875 Z M 164.953125 -103.125 C 164.953125 -121.457031 161.90625 -136.578125 155.8125 -148.484375 C 149.71875 -160.398438 140.785156 -169.265625 129.015625 -175.078125 C 117.242188 -180.890625 102.847656 -183.796875 85.828125 -183.796875 L 51.640625 -183.796875 L 51.640625 -20.375 L 80.53125 -20.375 C 108.625 -20.375 129.71875 -27.304688 143.8125 -41.171875 C 157.90625 -55.035156 164.953125 -75.6875 164.953125 -103.125 Z M 164.953125 -103.125 "/></g></g></g><g clip-path="url(#4685fb87e0)"><path fill="#ffffff" d="M 88.804688 88.078125 L 208.480469 88.078125 L 208.480469 240.945312 L 88.804688 240.945312 Z M 88.804688 88.078125 " fill-opacity="1" fill-rule="nonzero"/></g><g fill="#000000" fill-opacity="1"><g transform="translate(56.302611, 261.285898)"><g><path d="M 189.9375 -103.96875 C 189.9375 -80.988281 185.75 -61.800781 177.375 -46.40625 C 169 -31.007812 156.878906 -19.425781 141.015625 -11.65625 C 125.160156 -3.882812 105.925781 0 83.3125 0 L 27.90625 0 L 27.90625 -204.03125 L 89.453125 -204.03125 C 110.203125 -204.03125 128.066406 -200.238281 143.046875 -192.65625 C 158.023438 -185.070312 169.582031 -173.859375 177.71875 -159.015625 C 185.863281 -144.179688 189.9375 -125.832031 189.9375 -103.96875 Z M 164.953125 -103.125 C 164.953125 -121.457031 161.90625 -136.578125 155.8125 -148.484375 C 149.71875 -160.398438 140.785156 -169.265625 129.015625 -175.078125 C 117.242188 -180.890625 102.847656 -183.796875 85.828125 -183.796875 L 51.640625 -183.796875 L 51.640625 -20.375 L 80.53125 -20.375 C 108.625 -20.375 129.71875 -27.304688 143.8125 -41.171875 C 157.90625 -55.035156 164.953125 -75.6875 164.953125 -103.125 Z M 164.953125 -103.125 "/></g></g></g><g clip-path="url(#4bac600f02)"><path fill="#ffffff" d="M 116.96875 119.742188 L 217.855469 119.742188 L 217.855469 259.25 L 116.96875 259.25 Z M 116.96875 119.742188 " fill-opacity="1" fill-rule="nonzero"/></g><g clip-path="url(#1b16f51241)"><path fill="#ffffff" d="M 107.664062 102.8125 L 238.6875 102.8125 L 238.6875 233.835938 L 107.664062 233.835938 Z M 107.664062 102.8125 " fill-opacity="1" fill-rule="nonzero"/></g><g clip-path="url(#99dc22dfb7)"><path fill="#ffffff" d="M 101.042969 73.253906 L 170.941406 73.253906 L 170.941406 210.320312 L 101.042969 210.320312 Z M 101.042969 73.253906 " fill-opacity="1" fill-rule="nonzero"/></g><g clip-path="url(#d3175f7c58)"><path fill="#ffffff" d="M 148.644531 79.625 L 205.15625 79.625 L 205.15625 123.464844 L 148.644531 123.464844 Z M 148.644531 79.625 " fill-opacity="1" fill-rule="nonzero"/></g><g clip-path="url(#f60479e083)"><path fill="#ffffff" d="M 101.042969 201.40625 L 157.558594 201.40625 L 157.558594 245.246094 L 101.042969 245.246094 Z M 101.042969 201.40625 " fill-opacity="1" fill-rule="nonzero"/></g><g fill="#26a75a" fill-opacity="1"><g transform="translate(71.290852, 276.03816)"><g><path d="M 189.9375 -103.96875 C 189.9375 -80.988281 185.75 -61.800781 177.375 -46.40625 C 169 -31.007812 156.878906 -19.425781 141.015625 -11.65625 C 125.160156 -3.882812 105.925781 0 83.3125 0 L 27.90625 0 L 27.90625 -204.03125 L 89.453125 -204.03125 C 110.203125 -204.03125 128.066406 -200.238281 143.046875 -192.65625 C 158.023438 -185.070312 169.582031 -173.859375 177.71875 -159.015625 C 185.863281 -144.179688 189.9375 -125.832031 189.9375 -103.96875 Z M 164.953125 -103.125 C 164.953125 -121.457031 161.90625 -136.578125 155.8125 -148.484375 C 149.71875 -160.398438 140.785156 -169.265625 129.015625 -175.078125 C 117.242188 -180.890625 102.847656 -183.796875 85.828125 -183.796875 L 51.640625 -183.796875 L 51.640625 -20.375 L 80.53125 -20.375 C 108.625 -20.375 129.71875 -27.304688 143.8125 -41.171875 C 157.90625 -55.035156 164.953125 -75.6875 164.953125 -103.125 Z M 164.953125 -103.125 "/></g></g></g></svg>